{"accessors" : [{"bufferView" : 0, "byteOffset" : 0, "componentType" : 5123, "count" : 21426, "type" : "SCALAR", "max" : [21425], "min" : [0]}, {"bufferView" : 1, "byteOffset" : 0, "componentType" : 5126, "count" : 21426, "type" : "VEC3", "max" : [31, 14, 32.821998596191406], "min" : [-18, -19, 8], "name" : "POSITION"}, {"bufferView" : 1, "byteOffset" : 12, "componentType" : 5126, "count" : 21426, "type" : "VEC3", "max" : [1, 0.8666666746139526, 0.8980392217636108], "min" : [0.3764705955982208, 0.11372549086809158, 0.07450980693101883], "name" : "COLOR_0"}], "asset" : {"generator" : "Aspose.3D 24.6.0", "version" : "2.0"}, "buffers" : [{"uri" : "data:application/octet-stream;base64,", "byteLength" : 557084}], "bufferViews" : [{"buffer" : 0, "byteOffset" : 0, "byteLength" : 42852, "target" : 34963}, {"buffer" : 0, "byteOffset" : 42856, "byteLength" : 514224, "byteStride" : 24, "target" : 34962}], "materials" : [{"name" : "lambert2SG.001", "pbrMetallicRoughness" : {"baseColorFactor" : [1, 1, 1, 1], "metallicFactor" : 0.5, "roughnessFactor" : 0.5}, "emissiveFactor" : [0, 0, 0], "alphaMode" : "OPAQUE", "doubleSided" : false}], "meshes" : [{"primitives" : [{"attributes" : {"POSITION" : 1, "COLOR_0" : 2}, "indices" : 0, "material" : 0, "mode" : 4}]}], "nodes" : [{"mesh" : 0, "name" : "Mesh_Mesh_head_geo.001_lambert2SG.001"}, {"children" : [0], "matrix" : [1, 0, 0, 0, 0, 2.220446049250313E-16, -1, 0, 0, 1, 2.220446049250313E-16, 0, 0, 0, 0, 1], "name" : "Node #1"}], "scene" : 0, "scenes" : [{"nodes" : [1]}]}